<?xml version="1.0" encoding="UTF-8" standalone="no"?><svg viewBox="0 0 24 24" xmlns="http://www.w3.org/2000/svg" xmlns:xlink="http://www.w3.org/1999/xlink"><style>:root>svg{display:none}:root>svg:target{display:block}</style><svg viewBox="0 0 10 20" id="facebook" xmlns="http://www.w3.org/2000/svg"><path d="M6.821 20v-9h2.733L10 7H6.821V5.052C6.821 4.022 6.848 3 8.287 3h1.458V.14c0-.043-1.253-.14-2.52-.14C4.58 0 2.924 1.657 2.924 4.7V7H0v4h2.923v9h3.898z"/></svg><svg viewBox="0 0 24 24" id="instagram" xmlns="http://www.w3.org/2000/svg"><path d="M14.667 12a2.667 2.667 0 11-5.334 0 2.667 2.667 0 015.334 0zm3.846-3.232c.038.843.046 1.096.046 3.232s-.008 2.389-.046 3.233c-.1 2.15-1.109 3.181-3.279 3.279-.844.038-1.097.047-3.234.047-2.136 0-2.39-.008-3.232-.046-2.174-.099-3.181-1.132-3.279-3.279-.039-.845-.048-1.098-.048-3.234s.009-2.389.047-3.232c.099-2.152 1.109-3.181 3.279-3.279.844-.039 1.097-.047 3.233-.047s2.39.008 3.233.046c2.168.099 3.18 1.128 3.28 3.28zM16.108 12a4.108 4.108 0 10-8.217 0 4.108 4.108 0 008.217 0zm1.122-4.27a.96.96 0 10-1.92 0 .96.96 0 001.92 0zM24 0v24H0V0h24zm-4 12c0-2.172-.009-2.445-.048-3.298-.131-2.902-1.745-4.52-4.653-4.653C14.445 4.009 14.173 4 12 4s-2.444.009-3.298.048c-2.906.133-4.52 1.745-4.654 4.653C4.009 9.555 4 9.828 4 12c0 2.173.009 2.445.048 3.298.134 2.906 1.746 4.521 4.654 4.654.854.039 1.125.048 3.298.048s2.445-.009 3.299-.048c2.902-.133 4.522-1.745 4.653-4.654.039-.853.048-1.125.048-3.298z"/></svg><svg class="fbi fbi-linkedin" viewBox="0 0 16 16" id="linkedin" xmlns="http://www.w3.org/2000/svg"><path d="M0 1.146C0 .513.526 0 1.175 0h13.65C15.474 0 16 .513 16 1.146v13.708c0 .633-.526 1.146-1.175 1.146H1.175C.526 16 0 15.487 0 14.854V1.146zm4.943 12.248V6.169H2.542v7.225h2.401zm-1.2-8.212c.837 0 1.358-.554 1.358-1.248-.015-.709-.52-1.248-1.342-1.248-.822 0-1.359.54-1.359 1.248 0 .694.521 1.248 1.327 1.248h.016zm4.908 8.212V9.359c0-.216.016-.432.08-.586.173-.431.568-.878 1.232-.878.869 0 1.216.662 1.216 1.634v3.865h2.401V9.25c0-2.22-1.184-3.252-2.764-3.252-1.274 0-1.845.7-2.165 1.193v.025h-.016a5.54 5.54 0 01.016-.025V6.169h-2.4c.03.678 0 7.225 0 7.225h2.4z"/></svg><svg class="fbi fbi-pinterest" viewBox="0 0 16 16" id="pinterest" xmlns="http://www.w3.org/2000/svg"><path d="M8 0a8 8 0 00-2.915 15.452c-.07-.633-.134-1.606.027-2.297.146-.625.938-3.977.938-3.977s-.239-.479-.239-1.187c0-1.113.645-1.943 1.448-1.943.682 0 1.012.512 1.012 1.127 0 .686-.437 1.712-.663 2.663-.188.796.4 1.446 1.185 1.446 1.422 0 2.515-1.5 2.515-3.664 0-1.915-1.377-3.254-3.342-3.254-2.276 0-3.612 1.707-3.612 3.471 0 .688.265 1.425.595 1.826a.24.24 0 01.056.23c-.061.252-.196.796-.222.907-.035.146-.116.177-.268.107-1-.465-1.624-1.926-1.624-3.1 0-2.523 1.834-4.84 5.286-4.84 2.775 0 4.932 1.977 4.932 4.62 0 2.757-1.739 4.976-4.151 4.976-.811 0-1.573-.421-1.834-.919l-.498 1.902c-.181.695-.669 1.566-.995 2.097A8 8 0 108 0z"/></svg><svg class="fbi fbi-twitter" viewBox="0 0 16 16" id="twitter" xmlns="http://www.w3.org/2000/svg"><path d="M5.026 15c6.038 0 9.341-5.003 9.341-9.334 0-.14 0-.282-.006-.422A6.685 6.685 0 0016 3.542a6.658 6.658 0 01-1.889.518 3.301 3.301 0 001.447-1.817 6.533 6.533 0 01-2.087.793A3.286 3.286 0 007.875 6.03a9.325 9.325 0 01-6.767-3.429 3.289 3.289 0 001.018 4.382A3.323 3.323 0 01.64 6.575v.045a3.288 3.288 0 002.632 3.218 3.203 3.203 0 01-.865.115 3.23 3.23 0 01-.614-.057 3.283 3.283 0 003.067 2.277A6.588 6.588 0 01.78 13.58a6.32 6.32 0 01-.78-.045A9.344 9.344 0 005.026 15z"/></svg><svg class="fbi fbi-youtube" viewBox="0 0 16 16" id="youtube" xmlns="http://www.w3.org/2000/svg"><path d="M8.051 1.999h.089c.822.003 4.987.033 6.11.335a2.01 2.01 0 011.415 1.42c.101.38.172.883.22 1.402l.01.104.022.26.008.104c.065.914.073 1.77.074 1.957v.075c-.001.194-.01 1.108-.082 2.06l-.008.105-.009.104c-.05.572-.124 1.14-.235 1.558a2.007 2.007 0 01-1.415 1.42c-1.16.312-5.569.334-6.18.335h-.142c-.309 0-1.587-.006-2.927-.052l-.17-.006-.087-.004-.171-.007-.171-.007c-1.11-.049-2.167-.128-2.654-.26a2.007 2.007 0 01-1.415-1.419c-.111-.417-.185-.986-.235-1.558L.09 9.82l-.008-.104A31.4 31.4 0 010 7.68v-.123c.002-.215.01-.958.064-1.778l.007-.103.003-.052.008-.104.022-.26.01-.104c.048-.519.119-1.023.22-1.402a2.007 2.007 0 011.415-1.42c.487-.13 1.544-.21 2.654-.26l.17-.007.172-.006.086-.003.171-.007A99.788 99.788 0 017.858 2h.193zM6.4 5.209v4.818l4.157-2.408L6.4 5.209z"/></svg></svg>